# xmcd CD database file
#
# Track frame offsets:
#	183
#	12878
#	29703
#	47960
#	57870
#	73883
#	87715
#	100260
#	111643
#	129160
#	139090
#	149010
#	159333
#	175923
#	186645
#	196935
#	206045
#	217068
#	230683
#	242000
#	252288
#	263768
#	277530
#	289288
#	300910
#	313265
#
# Disc length: 4344 seconds
#
# Revision: 0
# Processed by: cddbd v1.4PL0 Copyright (c) Steve Scherf et al.
# Submitted via: CDex 1.51
#
DISCID=9910f61a
DTITLE=Various Artist - Yodeling Crazy
DYEAR=91
DGENRE=Country
TTITLE0=She Thaught Me How To Yodel - Frank Ifield (91)
TTITLE1=Drovin' - Slim Dusty and Anne Kirkpatrick (89)
TTITLE2=The Night Rider's Lament - Suzy Bogguss(89)
TTITLE3=The Night Guard - Roy Rogers (70)
TTITLE4=Erzherzog Johann Jodler - Heino (80)
TTITLE5=September's Sweet Child - Wayne Horsburgh ( 85)
TTITLE6=New Mule Skinner Blues - Don MacLean (73)
TTITLE7=Mei Vata Is A Aenzeller - Thomas Scholl (77)
TTITLE8=Mocking Bird Yodel - Mary Schneider (84)
TTITLE9=Second Fiddle To An Old Guitar - Jean Shepard (64)
TTITLE10=There's A Rainbow In Every Teardrop - Slim Whitman (67)
TTITLE11=Swiss Maid - Frank Ifield (68)
TTITLE12=Looking For A Girl Who Can Yodel - George Payne
TTITLE13=Chimebells - Slim Whitman (63)
TTITLE14=Betcha My Heart I Love You - Wanda Jackson (68)
TTITLE15=The Lonely Goat Herd - Ronnie Ronalde (61)
TTITLE16=The Runaway Train - Big Jim Hawthorne and The Maple Leaf Four (61)
TTITLE17=The Yodeling Craze - Frank Ifield (55)
TTITLE18=Sioux City Sue - Merle Travis 
TTITLE19=Satisfield Mind - Chic Murray (49)
TTITLE20=Le Pâtre des Montagnes - Andreany (ca.1929)
TTITLE21=Honeymoon Yodel - Harry Torriani (32)
TTITLE22=I'm A Happy Go Lucky Cowhand - Smoky Dawson (41)
TTITLE23=Cuckoo In The Wood - Minna Reverelli (34)
TTITLE24=Big Rock Candy Mountain - Robert "Tex"Morton (38)
TTITLE25=Lily Lucy Lane - The Hillbillies (35)
EXTD=YEAR: 91
EXTT0=
EXTT1=
EXTT2=
EXTT3=
EXTT4=
EXTT5=
EXTT6=
EXTT7=
EXTT8=
EXTT9=
EXTT10=
EXTT11=
EXTT12=
EXTT13=
EXTT14=
EXTT15=
EXTT16=
EXTT17=
EXTT18=
EXTT19=
EXTT20=
EXTT21=
EXTT22=
EXTT23=
EXTT24=
EXTT25=
PLAYORDER=
